
<svg xmlns="http://www.w3.org/2000/svg" version="1.1" xmlns:xlink="http://www.w3.org/1999/xlink" preserveAspectRatio="none" x="0px" y="0px" width="64px" height="64px" viewBox="0 0 64 64">
<defs>
<g id="Layer0_0_FILL">
<path fill="#0000FF" stroke="none" d="
M 64 24
L 64 0 40 0 40 8 48 8 48 16 56 16 56 24 64 24
M 32 32
L 24 32 24 40 32 40 32 32
M 40 24
L 32 24 32 32 40 32 40 24
M 48 24
L 48 16 40 16 40 24 48 24
M 56 32
L 48 32 48 56 8 56 8 16 32 16 32 8 0 8 0 64 56 64 56 32 Z"/>
</g>
</defs>

<g transform="matrix( 1, 0, 0, 1, 0,0) ">
<use xlink:href="#Layer0_0_FILL"/>
</g>
</svg>
